<?xml version="1.0" encoding="utf-8"?>
<!-- Generator: Adobe Illustrator 16.0.0, SVG Export Plug-In . SVG Version: 6.00 Build 0)  -->
<!DOCTYPE svg PUBLIC "-//W3C//DTD SVG 1.1//EN" "http://www.w3.org/Graphics/SVG/1.1/DTD/svg11.dtd">
<svg version="1.1" id="Layer_1" xmlns="http://www.w3.org/2000/svg" xmlns:xlink="http://www.w3.org/1999/xlink" x="0px" y="0px"
	 width="496.035px" height="464.73px" viewBox="0 0 496.035 464.73" enable-background="new 0 0 496.035 464.73"
	 xml:space="preserve">
<g>
	<path d="M49.797,325.54c6.454-8.065,14.524-14.234,24.207-18.501c9.683-4.262,20.633-6.397,32.852-6.397
		c23.17,0,42.476,7.812,57.924,23.431c15.445,15.619,23.169,34.956,23.169,58.009c0,22.712-7.927,41.96-23.775,57.751
		c-15.851,15.795-35.187,23.688-58.01,23.688c-12.104,0-22.651-2.133-31.642-6.397c-8.991-4.262-16.369-10.721-22.132-19.366v13.833
		c0,3.112-0.549,5.359-1.643,6.743c-1.097,1.383-2.912,2.075-5.446,2.075H13.66c-4.496,0-7.84-1.038-10.029-3.112
		c-2.191-2.075-3.285-5.188-3.285-9.337c0-4.607,1.324-7.751,3.977-9.422c2.65-1.672,7.895-2.509,15.734-2.509h3.631V258.971h-3.286
		c-7.84,0-13.2-0.92-16.08-2.767C1.44,254.363,0,251.134,0,246.521c0-4.149,1.151-7.262,3.458-9.337
		c2.305-2.075,5.706-3.112,10.202-3.112h26.282c3.458,0,5.965,0.58,7.521,1.729c1.556,1.154,2.334,2.939,2.334,5.359V325.54z
		 M103.744,436.374c16.253,0,29.451-5.126,39.596-15.389c10.143-10.258,15.216-23.571,15.216-39.942
		c0-16.019-5.16-29.221-15.475-39.596c-10.317-10.374-23.429-15.562-39.336-15.562c-16.023,0-29.135,5.16-39.336,15.478
		c-10.201,10.316-15.302,23.544-15.302,39.68c0,16.142,5.101,29.395,15.302,39.77C74.609,431.187,87.721,436.374,103.744,436.374z"
		/>
	<path d="M341.597,311.016v-0.691c0-3.804,1.093-6.598,3.285-8.384c2.188-1.787,5.589-2.683,10.199-2.683
		c4.727,0,7.981,1.384,9.771,4.15c1.783,2.767,2.678,8.473,2.678,17.117v32.161c0,4.267-1.095,7.466-3.285,9.599
		c-2.189,2.132-5.475,3.196-9.855,3.196c-3.11,0-5.791-0.892-8.038-2.678c-2.248-1.787-4.987-5.505-8.213-11.154
		c-5.533-9.337-12.25-16.396-20.145-21.18c-7.896-4.784-16.975-7.177-27.232-7.177c-17.982,0-32.593,5.304-43.832,15.907
		c-11.239,10.608-16.858,24.323-16.858,41.151c0,17.179,5.387,31.212,16.167,42.104c10.776,10.894,24.639,16.339,41.584,16.339
		c7.722,0,15.07-1.065,22.046-3.197c6.973-2.133,13.573-5.33,19.798-9.599c2.188-1.383,5.128-3.514,8.818-6.397
		c7.49-6.107,13.369-9.164,17.635-9.164c3.573,0,6.485,1.126,8.733,3.373c2.247,2.248,3.37,5.16,3.37,8.73
		c0,9.11-8.618,18.416-25.849,27.927c-17.232,9.51-35.532,14.263-54.897,14.263c-25.015,0-45.851-8.008-62.506-24.034
		c-16.659-16.02-24.985-36.021-24.985-59.999c0-23.973,8.299-44.003,24.898-60.083c16.6-16.081,37.349-24.122,62.247-24.122
		c8.759,0,17.55,1.183,26.368,3.546S331.682,306.062,341.597,311.016z"/>
</g>
<rect x="284.104" width="211.931" height="139.264"/>
</svg>
